<?xml version="1.0" encoding="utf-8"?>
<!-- Generator: Adobe Illustrator 16.0.0, SVG Export Plug-In . SVG Version: 6.00 Build 0)  -->
<!DOCTYPE svg PUBLIC "-//W3C//DTD SVG 1.1//EN" "http://www.w3.org/Graphics/SVG/1.1/DTD/svg11.dtd" [
	<!ENTITY ns_flows "http://ns.adobe.com/Flows/1.0/">
	<!ENTITY ns_extend "http://ns.adobe.com/Extensibility/1.0/">
	<!ENTITY ns_ai "http://ns.adobe.com/AdobeIllustrator/10.0/">
	<!ENTITY ns_graphs "http://ns.adobe.com/Graphs/1.0/">
	<!ENTITY ns_vars "http://ns.adobe.com/Variables/1.0/">
	<!ENTITY ns_imrep "http://ns.adobe.com/ImageReplacement/1.0/">
	<!ENTITY ns_sfw "http://ns.adobe.com/SaveForWeb/1.0/">
	<!ENTITY ns_custom "http://ns.adobe.com/GenericCustomNamespace/1.0/">
	<!ENTITY ns_adobe_xpath "http://ns.adobe.com/XPath/1.0/">
]>
<svg version="1.1" id="Layer_1" xmlns:x="&ns_extend;" xmlns:i="&ns_ai;" xmlns:graph="&ns_graphs;"
	 xmlns="http://www.w3.org/2000/svg" xmlns:xlink="http://www.w3.org/1999/xlink" xmlns:a="http://ns.adobe.com/AdobeSVGViewerExtensions/3.0/"
	 x="0px" y="0px" width="130px" height="130px" viewBox="0 0 130 130" enable-background="new 0 0 130 130" xml:space="preserve">
<metadata><?xpacket begin="﻿" id="W5M0MpCehiHzreSzNTczkc9d"?>
<x:xmpmeta xmlns:x="adobe:ns:meta/" x:xmptk="Adobe XMP Core 5.3-c011 66.145661, 2012/02/06-14:56:27        ">
   <rdf:RDF xmlns:rdf="http://www.w3.org/1999/02/22-rdf-syntax-ns#">
      <rdf:Description rdf:about=""
            xmlns:dc="http://purl.org/dc/elements/1.1/">
         <dc:format>image/svg+xml</dc:format>
         <dc:title>
            <rdf:Alt>
               <rdf:li xml:lang="x-default">Print</rdf:li>
            </rdf:Alt>
         </dc:title>
      </rdf:Description>
      <rdf:Description rdf:about=""
            xmlns:xmp="http://ns.adobe.com/xap/1.0/"
            xmlns:xmpGImg="http://ns.adobe.com/xap/1.0/g/img/">
         <xmp:MetadataDate>2025-10-01T02:33:32+08:00</xmp:MetadataDate>
         <xmp:ModifyDate>2025-10-01T02:33:32+08:00</xmp:ModifyDate>
         <xmp:CreateDate>2025-10-01T02:33:31+08:00</xmp:CreateDate>
         <xmp:CreatorTool>Adobe Illustrator CS6 (Windows)</xmp:CreatorTool>
         <xmp:Thumbnails>
            <rdf:Alt>
               <rdf:li rdf:parseType="Resource">
                  <xmpGImg:width>256</xmpGImg:width>
                  <xmpGImg:height>256</xmpGImg:height>
                  <xmpGImg:format>JPEG</xmpGImg:format>
                  <xmpGImg:image>/9j/4AAQSkZJRgABAgEBLAEsAAD/7QAsUGhvdG9zaG9wIDMuMAA4QklNA+0AAAAAABABLAAAAAEA&#xA;AQEsAAAAAQAB/+4ADkFkb2JlAGTAAAAAAf/bAIQABgQEBAUEBgUFBgkGBQYJCwgGBggLDAoKCwoK&#xA;DBAMDAwMDAwQDA4PEA8ODBMTFBQTExwbGxscHx8fHx8fHx8fHwEHBwcNDA0YEBAYGhURFRofHx8f&#xA;Hx8fHx8fHx8fHx8fHx8fHx8fHx8fHx8fHx8fHx8fHx8fHx8fHx8fHx8fHx8f/8AAEQgBAAEAAwER&#xA;AAIRAQMRAf/EAaIAAAAHAQEBAQEAAAAAAAAAAAQFAwIGAQAHCAkKCwEAAgIDAQEBAQEAAAAAAAAA&#xA;AQACAwQFBgcICQoLEAACAQMDAgQCBgcDBAIGAnMBAgMRBAAFIRIxQVEGE2EicYEUMpGhBxWxQiPB&#xA;UtHhMxZi8CRygvElQzRTkqKyY3PCNUQnk6OzNhdUZHTD0uIIJoMJChgZhJRFRqS0VtNVKBry4/PE&#xA;1OT0ZXWFlaW1xdXl9WZ2hpamtsbW5vY3R1dnd4eXp7fH1+f3OEhYaHiImKi4yNjo+Ck5SVlpeYmZ&#xA;qbnJ2en5KjpKWmp6ipqqusra6voRAAICAQIDBQUEBQYECAMDbQEAAhEDBCESMUEFURNhIgZxgZEy&#xA;obHwFMHR4SNCFVJicvEzJDRDghaSUyWiY7LCB3PSNeJEgxdUkwgJChgZJjZFGidkdFU38qOzwygp&#xA;0+PzhJSktMTU5PRldYWVpbXF1eX1RlZmdoaWprbG1ub2R1dnd4eXp7fH1+f3OEhYaHiImKi4yNjo&#xA;+DlJWWl5iZmpucnZ6fkqOkpaanqKmqq6ytrq+v/aAAwDAQACEQMRAD8A9U4q7FXYq7FXYq7FXYq7&#xA;FXYq7FUPeahY2Sc7udIV7c2AJ+Q6n6Mqy54YxcyAzhjlLkLY9ffmFpMNVtYpLph0P92h+lvi/wCF&#xA;zUZu3sUfpBl9g/HwcyHZ8zz2SK7/ADC1mUkQRxW69iAXb72NPwzWZe3s0vpAj9v4+TlR7PgOdlKp&#xA;/M/mCf7d9KK/yH0/+IccwZ9paiXOZ+G33N8dNjHQIKS9vJTWSeRz/lOx/WcxZZpy5kn4tohEcgo5&#xA;WydiqtHe3kRrHPIh/wAl2H6jlkc048iR8WJhE8wjYPM/mCD7F9Kafzn1P+J8syodpaiPKZ+O/wB7&#xA;VLTYz0Ca2n5hazEQJ44rhe5IKN96mn4ZnYu3s0fqAl9n4+TRLs+B5WE9sfzC0mai3UUlqx6n+8Qf&#xA;Svxf8Lmzw9vYpfUDH7R+Pg4s+z5jluyGz1CxvU52k6TL34MCR8x1H05t8WeGQXAguHPHKPMUiMtY&#xA;OxV2KuxV2KuxV2KuxV2KuxV2KuxV2KuxV2KuxV2KuxVLNX8xaVpSn6zLWbtAnxSH6O305harX4sA&#xA;9R37hzb8Wnnk5Bheq+ftVuiUswLOHxHxSH/ZHp9AznNT25lntD0D7XZYtBCP1bsalmlmkMkrtJI3&#xA;2nclifmTmmlMyNk2XNAA2C3IpY/rPn/yXoxZdR1m1ikX7UKuJZR844+b/hmXi0ObJ9MS1TzwjzLD&#xA;9R/5yH8iWxK2qXl8ezRRKiH6ZWRv+FzPx9hZzz4Y/H9Tjy1+McrLH7r/AJyZhFRaeX2bwaW5C/8A&#xA;CrE368y4+zx6z+z9rSe0e6P2oCT/AJyX1ct+70S3VfBpnY1+YVcsHs9DrM/Jj/KJ7nR/85L6uG/e&#xA;aJbsvgszqa/Mq2J9nodJn5L/ACie5MLX/nJm3NBd+X3TxaK5D18fhaJP15VL2ePSf2ftZDtHvin+&#xA;nf8AOQ/kS5IW6S8sT3aWJXQfTEzt/wALmLk7Czjlwy+P626OvxnnYZho3n/yXrJVdO1m1lkb7MLO&#xA;IpT8o5OD/hmBl0ObH9US5EM8JciyDMRtXRTTQyCSF2jkX7LoSrD5EZKMzE2DRQQDsWS6V5+1S1IS&#xA;8AvIfE/DIB7MNj9I+nNzpe3MsNp+sfa4WXQQl9OxZppHmLStUUfVpaTd4Hosg+jv9GdHpdfizj0n&#xA;fuPN1uXTzx8wmeZrQ7FXYq7FXYq7FXYq7FXYq7FXYq7FXYq7FVK6u7a0gae5kWKFBVnY0GV5csYR&#xA;4pGgyjAyNDmwTXfPtzOWg0sGCHobg/3jf6v8v6/lnMa3tyUvTi9I7+v7Ha4NCBvPcsSd3di7sWZj&#xA;VmJqSfc5oCSTZdgAleu+ZdB0C1N1rF9FZxUJX1G+N6dQiCrOfZRluHT5MpqAthPJGAsmnkXmj/nI&#xA;+NS8HlrT+fUC9vagfNYUNfkWb6M3+m7A65JfAfrdfl7Q/mh5X5g/MHzlr5Yanqs8kL1rbI3pQ0Pb&#xA;04+Kn6Rm7waHDi+mIvv6uDkzznzLHcy2l2KuxV2KuxV2KuxV2Ksi8v8A5g+ctAKjTNVnjhSlLZ29&#xA;WGg7enJyUfQMxM+hw5fqiL7+rdjzzhyL1Tyv/wA5HxsUg8y6fw6A3tlUj5tC5r8yrfRmk1PYHXHL&#xA;4H9bnYu0P5weu6F5k0LX7MXej3sV5BtyMZ+JSezoaMh9mGaDNp54jUxRdhDJGYsG00R3Rg6MVZTV&#xA;WBoQfY5UCQbDMhluhefbmDjBqgM8PQXA/vF/1v5v1/PN/ou3JR9OX1Dv6/tdfn0IO8Nizu1ura6g&#xA;We2kWWF91dTUZ1GPLGceKJsOqlExNFVybF2KuxV2KuxV2KuxV2KuxV2KuxVLdb16x0i39Sc8pW/u&#xA;oFPxMf4DxOYes10NPG5c+g727DglkNB5nrOu3+rT+pcv8AP7uFfsKPYePvnF6vW5M8rkdug6B3eH&#xA;BHGKCU3d3a2dtJdXcyW9tCOUs0jBEVR3ZjsMxoxMjQFltJAFl4r57/5yEVDJYeUUDndW1WZdh7wx&#xA;N1/1n/4HOj0XYX8WX/S/rP6nW59f0h83imqatqeq3j3upXUl3dSfammYu1PAV6AdgM6LHijAcMRQ&#xA;dbKRkbKEyxi7FXYq7FXYq7FXYq7FXYq7FXYq7FUXperanpV4l5pt1LaXSfZlhYo1PA06j2OV5MUZ&#xA;ipCwyjMxNh7X5E/5yEV2jsfNsYQmirqsK/D85oh0/wBZP+B75zut7C/ixf6X9R/W7LBr+k/m9qtL&#xA;u1vLaO6tJkuLaYcopo2DoynurDY5zkomJoii7IEEWE20bXb/AEmf1LZ6xsf3kLfYf5jx98ydJrcm&#xA;CVxO3UdC1ZsEcgovTNE16x1e39S3PGVaerA32lP8R752mj10NRG48+o7nSZsEsZoplmY0uxV2Kux&#xA;V2KuxV2KuxV2KpP5j8x22jW4JHqXUgPow/8AGzeAH45r+0O0I6ePfI8g5Gn05yHyeYX19dX1y9zc&#xA;yGSVzuT2HgB2Azic2aWWRlI2S72EBEUGNecPOmheU9MN9qs3EtUW9slDNMw/ZRf1k7Dvlul0k88u&#xA;GI+PQMMuaOMWXzJ58/MrzB5wuj9bf6vpqNW306In018Gf+d/8o/QBnZaLs/HpxtvLvdLn1Esh35d&#xA;zEsz3HdirsVdirsVdirsVdirsVe7/k1/zi9cfmD5TXzNf602kWs88sVnbrbCdpY4qKZeZlj4j1OS&#xA;04n7PXFWff8AQjmlf9TdP/0hJ/1WxVKdR/5wd1VEJ07zbBcPTZbizeAV325JLP8AqxVgnmP/AJxN&#xA;/OLR1aS2sbbWoUqWfT7hS1P+Mc4gkY+yqcVeU6voms6NeNZavYXGnXifat7qJ4ZB/sXCnFUDirsV&#xA;Zb5E/MvzD5Puh9Vf6zprtW406Vj6bV6sn8j/AOUPpBzA1vZ+PUDfaXe5GDUSxnbl3Ppvyf500LzZ&#xA;pgvtKm5FaC4tnoJoWP7Lr+ojY9s43VaSeCXDIfHoXdYs0cgsMlsb66sblLm2kMcqHYjuPAjuDlWH&#xA;NLFISiaIZzgJCi9Q8ueY7bWbYkAR3UYHrQ1/4ZfFTnbdn9oR1Ee6Q5h0Wo05xnyTfNg47sVdirsV&#xA;dirsVdiqW69rdvpFiZ5PilaqwRd2b+g7nMPXayOnhxHn0He3YMJySoPKr6+ub66kubly8shqT2Hg&#xA;B4AZwubNLLIykbJd/CAiKDDfzB/MHSvJulfWLik2oTAixsQaNIw/ab+VF7n+OZOh0MtRKhtEcy1Z&#xA;84xjzfLPmXzNrHmTVpdT1WcyzyGiIKhI07JGv7Kj+07522n08MMOGI2dHkyGZspVl7W7FXYq7FXY&#xA;qjdH0XV9a1CLTtIsp9Qv5v7q1to2lkam5IVATQdzir0O1/5xq/OO55JHo0IulUP9Se+sVuOJ7mMz&#xA;VX/ZUxVgfmLyx5g8tapJpevWE2nX8e7QTqVJU9GU9GU9mUkYqleKo/QNEv8AXdbsNG09PUvtRnjt&#xA;rdN6c5WCgmnQCtSewxV9qfnl5jg/Kj8krPy75fna11C4ji0nTJozwlVEUG5uBxNQxUGrA1DuDir5&#xA;z8lfll+e/nPQ11zQJrufTZJHijml1H0eTRmjFVklUkA7V8cVT3/BP/OXXl6ksR14KPi9ODUReKfn&#xA;FHPMD9n+XFVez/5yX/P3yddLbeabX60On1fWLFrWWg/leNbdq+7BsVeoaB/zkl+Tf5i2i6H590mL&#xA;TJJvhC6iEubLkdqpc8VaJu/JlWn82KsV/NL/AJxEhNk2vflpc/W7Zk9YaLLIJOUZFQbS4r8YpSiu&#xA;an+c7DFXzHdWtzaXMtrdRPb3MDtHPBKpSRHU0ZXVqFWB2IOKqWKpr5a8zax5b1aLU9KnMU8Zo6Gp&#xA;SRO6SL+0p/tG+UajTwzQ4ZDZsx5DA2H1N+X35g6V5y0r6zbUgv4ABfWJNWjY9x/Mjdj/ABziddoZ&#xA;aeVHeJ5F3mDOMgsc2ZWN9c2N1Hc2zlJYzUHsfEHxBzGw5pYpCUTRDbOAkKL1XQdbt9XsRcR/DKvw&#xA;zxV3Vv6HtndaHWR1EOIc+o7nQZ8JxyoplmY0uxV2KuxV2KqV3dQWltJczsEhiUs7HwGV5csYRMpc&#xA;gyhEyNDm8m13WZ9Wv3uZKhPswx9lTsPn45wet1cs+QyPLoO4O/wYRjjQYj5084aZ5T0KbVb48ivw&#xA;W1uDRppiPhRf1k9hvg0mllnmIx+PkE5soxxsvkzzN5l1bzJrE+q6nKZJ5TREH2I0B+GNB2Vf7Tvn&#xA;dafTwwwEY8nQ5MhmbKVZe1uxV2KuxV2KuxV6DqGv33kzyrpug6DK1hqmt2ceo+YtRhPG4eK6/eWl&#xA;okq/GkK2/CVlBHJn+KoUYqwnTNV1LS9St9T065ktdQtZBNb3UbFZEkU1DA4q+/vzF8h2v5lflQia&#xA;pZxjzA2nJe6fMq/Hb3rQiQojdeDv8DDuPcDFX57Yq+kf+cNPy8Oo+Y77zteR1tNHU2mnVGzXcyfv&#xA;GH/GKFqf7MeGKsc/5yK81X35i/nJH5c0Um5t9NmXRtMiUkq908gW4k2r1l+Co/ZQHFX2Z5L8rWPl&#xA;TyppXl2xA+r6ZbpAHApzcCskhA7yOWc+5xVOsVQ+oabp2pWj2eo2sN7aS7SW9xGssbD/ACkcFTir&#xA;w/8AMn/nEfyL5gimvPK3/OuawassaVexkbwaHcxV6VjoB/KcVeJeUvzC/NP8hfNH+HfMNtJPohbn&#xA;LpUrcomiZj+/sZfsqSa9PhPRhy3Cr1/81/ys8q/nT5Ph8/eRZEOvmEshACfWxGKG2uB+xOlOKsfk&#xA;TxoyqvjW4t57eeS3uI2inhZo5YnBVldTRlYHcEEb4qp4qmvlnzLq3lvWINV0yUxzxGjofsSIT8Ub&#xA;jurf2jfKNRp4ZoGMuTZjyGBsPrPyX5w0zzZoUOq2J4lvgubcmrQzAfEjfrB7jfOF1ellgmYy+HmH&#xA;fYcoyRsMu0LWZ9Jv0uY6lD8M0fZk7j5+GHRauWDIJDl1HeEZ8IyRovWbW6guraO5gbnDKoZGHgc7&#xA;3FkjOIlHkXQSiYmiq5Ni7FXYq7FXn/n3XfXuRpkDfuYDW4I/ak/l/wBj+v5Zynbet4peFHlHn7/2&#xA;O30OChxnmWF3d3bWdrNd3UghtrdGkmlbZVRBVmPyGaGMTIgDmXPJAFl8mfmV58uvOHmB7urJptvW&#xA;LTrc/sx1+2w/nfq30Dtnddn6IafHX8R5uh1Gc5JX06MSzPcd2KuxV2KuxV2KuxVmX5k2sjS+XtaU&#xA;Vs9W0LTRBIN156dappsyV8VksySPcYqlnkHy4/mXztoegqpZdRvYIJadomceq3+xj5HFX6aKqqoV&#xA;QFVRRVGwAGKvz8/MP/nHb8xPJ2sQWYs21ewvrhLbTtSs1LRySSsFjjkTdoXYsBRtq9GOKvpvzRe2&#xA;H5FfkHHYWDr+mFhFnZyDrLqVyC0s++5CHk4r2ULiryT/AJw5/L1tW8z33njUEL2+j1g09n3D3s6n&#xA;1Hqepiibf3cHtir7ExV2KuxV2KsR/M/8svL/AOYflmbRdWQJMoL6dfhay209KCRNxUfzLWjD6CFX&#xA;yX+UvnjzB+SX5n3flXzTWHRp5xb6xFu0cZNPRvouh48SCTT4kPSoFFWVf85dflJFbzR/mNoUQNne&#xA;skeuJFuglfaK6FNqS/Zc/wA1D1Y4q+Y8VdirLfy0893Xk/zCl1Vn0254xajbjflHX7aj+dOq/SO+&#xA;YHaGiGox1/EOTkafOccr6dX1naXdteWsN3ayCa2uEWSGVd1ZHFVYfMZwsomJIPMO+BBFhmnkLXTB&#xA;cnS52/czmtuT+zJ/L/sv1/PN92HreGXhS5S5e/8Aa4GuwWOMcw9Azq3UOxV2KpZ5i1ddK0qW5r++&#xA;PwQDxkbp93XMLX6oYMRl15D3t+nxeJMB5K7s7s7kszElmPUk9TnBEkmy9AA8O/5yE89lFTyjYSbu&#xA;Fm1VlPQfaihPz+23+xzpOwtF/lZf5v6T+h1mvz/wD4vCc6Z1bsVdirsVdirsVdirsVeo/l0+gecv&#xA;K8v5da9fxaVqEVw195Q1i5JEEdxKoW4spm/ZjuAisvg47k0Kr1L/AJxq/Inzj5f/ADIudf8ANenN&#xA;p9voUUsdm8hVlnuJ1MfOJlJV41iZyW8SPeir36w/OP8ALPUPNb+VbLzBaz6yoHGNGrE71oYo5v7p&#xA;5B3RWr9xoqzPFXw3/wA5E+e778y/zRtvLHl8G7sNMn/RulxRkUuLuVwk0oNeNC4CK3Tite+Kvr78&#xA;tvI9h5H8l6Z5bs6N9TiH1mcD++uH+KaXx+JyaV6Cg7YqybFXYq7FXYq7FXz9/wA5b/lQvmDywPOe&#xA;mQ11jQYz9eVR8U1hUsx9zASX/wBXl7Yqgf8AnGfz5pvn/wDL6/8Ay28z0ubmwtWgRHPxT6a/wLQ/&#xA;zW7MFqOg4d8VfMX5l+QtU8iectQ8uahVvqz87S5pQT2z7xSr/rL9odmqO2KsXxV2Kvdv+ce/PbOs&#xA;nlK+kqUDTaUzH9nrLCPl9tf9l7ZzPbui/wArH/O/Qf0O00Gf+A/B7ijsjq6EqykFWHUEdDnNgkGw&#xA;7Mh615d1ddU0qK5r++HwTjwkUb/f1zvdBqhnxCXXkfe8/qMXhzITPM1odirzjz9qv1rVRZof3VmK&#xA;H3kbdvuFBnH9uanjy8A5Q+93OgxcMOLvYL5l1210DQb7WLoj0rOJpOJNOb9EQHxdiFGarT4TlyCA&#xA;6uXkmIRJPR8b6tql5qup3WpXj87q7laaVu3JzWg9h0Geg4sYhERHIPOzkZGyhMsYuxV2KuxV2Kux&#xA;VVt7W5uZPTt4nmk68I1LtStOgr44qqXem6jZHjeWs1swNKTRtGa0rT4gMVQ2Ko5tc1p7P6k2oXLW&#xA;dOP1YzSGLj4cK8afRiqefll5C1bz35z0/wAvabVDO/qXd0BUW9tGQZZj/qj7PixA74q+u/8AnIf8&#xA;zLb8t/y8t/LGj3Mja/qVsLKxeSRpJ4bVFEclzI7VYuR8KMTUseQ+ycVef/8AOHv5U8pJvzF1eKkU&#xA;XqW+gq/Qtulxcj/V3jX/AGXgMVd+Y/8AzmXqlvrk9h5GsLSXTrZzH+k75ZJTcFTQvFHG8QRD2LEk&#xA;jfbFWf8A5Df85Jw/mHfv5f1yzi03zEI2mtzblvq9yqCrhFcs6Oo+LiWaoqa7Yq9wxV2KuxV2KrZI&#xA;45Y2jkUPG4KujAFSpFCCD1BxV8Nfmh5R1/8AI782bTzF5dDJo80zXejSGvp8Cf39jJTeiq3H3Qg9&#xA;a0Ve4+ffKflj/nIH8srPzH5bdItftEZrFnoHSUCs1hcntVvst2NGHwsaqvizVtJ1PSNSuNM1S1ks&#xA;9QtHMdxbTKUdGHYg/eMVQmKovSdUvNK1O11KzfhdWkqzRN25Ia0PsehyvLjE4mJ5FlCRibD7I8t6&#xA;7Z6/oVlrFof3F5EJAtalW6Oh90YFTnn2ownFMwPMPRY5icQR1Z15B1U2uqGzc/ubwUHgJF3U/SKj&#xA;7s2vYeq4MvAeU/vcTX4uKHF1D0fOwdMh9QvEsrGe7f7MKM9PEgbD6TtlWfKMcDM9Azxw4pAd7xua&#xA;WSaZ5pDykkYu7eLMak553ORkSTzL0YFCg8N/5yP80FY9P8tQP9v/AE29APYEpCp+nkxHyzo+wNN9&#xA;WQ+4fpdb2hl5ReE50zq3Yq7FXYq7FXYqzPQdD0LSvLI83eZITepdTPbeX9EDmNbuWGhnnuXQrItv&#xA;DzVaIQzsaBlAY4qpyfmz+YSqYtN1mfQ7MGqWWjH9GwL2A4Wnpctu7VJ7knFU78tf85A/mfpkn1a+&#xA;1FvMulz0S60jWh9einQ7FCZeUgr7N9BxVF/85A/lxb+Udc0jUbOwOk2fmWxS/bRmbn9RuiF+s2qs&#xA;QCVjZxTbvTtiryxEd3VEUs7EBVAqSTsAAMVfcX5M+RNH/Jn8sb7zR5oKwatcwC81iQgF4YwP3Nml&#xA;erVahA+1Iab0GKvnfR7DzP8An9+ckk92WhtJ29W8dTVbLTYWosaEinKh4rtu7ciOuKvt+48tWkPk&#xA;+fy1o6rYWwsJLCxCVCwqYjEh7n4a1rir80NX0nUdH1S60rUoGtr+ylaC6t3+0kiGjD+3FXqX/OLH&#xA;lnVdX/N/Sr60Vls9FEt3qFwOiIYnjRKkUrI7haeFT2xV97Yq7FXYq7FXYqxz8wfIWg+evLF15f1q&#xA;PlbzjlBOtPUgmUHhNGT0Za/SKg7HFXxpa3f5l/8AOOnn94pY/rOl3RoyHkLPUbdDs6HfhKnL/WQm&#xA;hqp+JV7xc6d+S3/OROiC5t5fqXma3i+J14x6jbdgsqHaeEMeu48GUk4q+X/zY/JnzZ+WuoxQ6t6d&#xA;zp12zCw1KA/BLx3IZD8cbgHcHbwJxVgOKvdv+ccPNBaPUPLU7/Y/02yBPYkJMo+niwHzzme39N9O&#xA;Qe4/odp2fl5xe5QyyQzJNGeMkbB0bwZTUHOchIxII5h2RFii9k0+8S9sYLtPszIr08CRuPoO2eiY&#xA;MoyQEx1DzmSHDIjuY9+YV96OkxWqmjXUm48Uj+I/8NxzUdvZuHEI/wA4/YPwHM7Phc77nnWcg7h8&#xA;d/mD5gOv+ctV1MNzhknZLY1qPRi/dx0+aqDnoGhweFhjHrW/veez5OOZLHcy2l2KuxV2KuxV2KvR&#xA;vP1oZvyv/LjVbbeyS11DTplXpHdQ30kz8qbBpEnVh4j5YqwfRdE1fW9Tt9L0i0lvtRum4QW0Cl3Y&#xA;/IdgNyTsBucVfZ35Ff8AOMml+TvQ8weaVj1HzQKSW8Gz21k3UcK7SSj+fop+z05FVj//ADmf5R82&#xA;avZ6Dq+m2El5o+jR3RvpYQHaFpzF8boPj4cYd23A707qsY/5xN/JZtU1CP8AMDXYP9xtjIf0FA42&#xA;muUNDcUP7EJ+x4v/AKu6qV/85Pfm5cedvNEPkjy2zXOkadcCJhACxvdQJ9MBQPtLGW4IB1Yk7/Di&#xA;r6J/IX8prf8ALnyZHazqr6/qPG41m4Wh/eU+CBW/khBoPFuR74q9KxVifnD8p/y684zpceZNCt76&#xA;6QAC6+OGcqvRWlhaORlHgTTFU28s+U/LXlfThpvl/TYNMsgeRit0C8m6cnb7Tt7sScVTbFXYqg9Y&#xA;1nStF0y41TVruKy0+1XncXUzBERfcnxOwHc7Yq8xsP8AnKb8lrzVhpy6y8IZuEd7PbzRWxParsoK&#xA;g+LgDxxV6xHJHLGskbB43AZHUgqVIqCCOoOKrsVfNn/OVv5x+VYdFuvIVpbW+sa1MR9cklUSR6eQ&#xA;NmU/8tFDtQ/D38CqxH/nE78n/NMnmOz/ADAvGk07RLVZRZxnkkl6ZIzHsu37kcuXI/aIoO5Cqb/8&#xA;5kfmB5O1LTLDyjZXP1vzBp98Lq6MIDxQRiKSNopJK7SMzqeIrSnxU2xV8q4qyL8vvMB0DzlpWplu&#xA;EMc6pcmtB6Mv7uSvyVicxNdg8XDKPWtve3YMnBMF9iZ5+9C9F/L2+9bSZbVjVrWTYeCSfEP+G5Z1&#xA;/YObixGP80/YfwXT9oQqd96RfmFdmXWY4Afht4gCP8pyWP4UzWdvZeLMI/zR9/4DldnxqF95eb+f&#xA;9ZOjeS9Z1FW4yRWrrC3hLKPTjP8AwbjNdocXiZox83Jzz4YEvjnPQHnXYq7FXYq7FXYq7FXq35Mf&#xA;mf5W0O1vPKPn3TF1fyTqsyXLoy82s7pV4fWI1FH+JKK3A8gB8PcFV9Z/l0v5BeXNKe+8l3ejWdrO&#xA;tZ7wXSNPx68ZZbiRp1A/kc7eGKrl/wCcivyffzNF5fj8wwvcS7LeqD9SElQBGbkj06tXYg8f8qu2&#xA;KvSAVZaijKw2PUEHFXz/AP8AOTn5z2/kzQf8FeWZFg17UIeNw1vRPqVmwp8PGgWSUbLT7K1bb4cV&#xA;Yx/ziV+SnER/mJr8HxGo8u20g6Agq12QfH7Mf0t/KcVfVGKuxV2KuxV2KuxV8wf85v6tq0WmeVtK&#xA;iLJpV3LdT3ND8LzQCJYg1P5VlYivWvtir5KxV93f84larquofk9arqDtIljd3FpYu9SfqycWUVPU&#xA;Kzso8AKdsVS//nJD8/08k2TeWfLkyv5su0BmnFGFjC4NHPb1m/YU9B8R/Z5KvKf+cdf+cfZ/OV0v&#xA;nbzkjyaF6pltbSbkX1CblVpZS25h5df5z7Vqqyz/AJyE/wCclk0wXHkryFMEuYh6Go61bkBYOPwt&#xA;b2vHbmOjOPs9F+LdVXyYzMzFmJZmNWY7kk9zirWKuxV9jeQNZOs+S9G1Fm5SS2qLM3jLEPTkP/Bo&#xA;c8/12Lw80o+b0WCfFAF6R+Xt2YtZkgJ+G4iIA/ykIYfhXNj2Dl4cxj/OH3fguN2hG4X3FKvM8/r+&#xA;YL5+tJSn/Iv4P+Ncwe0p8WomfOvls36aNYx7njn/ADkPqJtvIiWqne+vIomHiiK0p/4ZFzM7Cx3n&#xA;v+bE/qadfKsdd5fNOdi6V2KuxV2Kpz5U8p6v5o1X9HaYI1KRtPdXdxIsNtbW8f8AeT3ErfDHGldy&#xA;fkKkgYqzOLyt+RdjILXU/Omo6hcVAludL02lqhrRgGuJFkkA/mCCvYYqyXzt/wA4x6jaeWIvN/kP&#xA;VV81+XZYPrJCR+ndLFuSyoCwk40+ICjg7cdjirw7FXYqyT8vvIWveevM9r5f0WPlcTnlPO1fTghU&#xA;jnNIR0Va/SaAbnFX2l5y84eXPyH/ACrsNKtJWvtShhNtolrcuzvPMN3lkFarEjNyIWgGyrSoxV87&#xA;fkj+Vmt/m953u/M/mmWW40WC49fWLt6hru4PxC2QilBSnLj9lKAUquKvefz3/wCchLT8sja+XdAs&#xA;ILzXngWRYpKra2kG6x8kjKliePwoCtBvXpVV5n5E/wCcz/MI1qK386afaSaRO6pJeWCSRTQAmhkK&#xA;M8okUd1FD8+mKvreGaKeFJoXWSGVQ8cikFWVhUMCOoIxVfirsVdirsVYr+ZX5b+XvzB8syaFrSsq&#xA;chNaXcVBLBMoIWRKgjoxBB6jFXz1Y/8AOD10NVH1/wA1I2kq1SYLUrcOlelHdkQnx+KngcVepfmf&#xA;588sfkh+W9ppOgwRpfGNrXy/p1eXxDeS5mruyqzcnP7TGnckKvnf8hvyf1X81PNd15o80vLPoFvc&#xA;GXUrmUtzvrpjzMCuKbb1kI6CgHWoVe0/85SfmR5m8l+VrTQPLOnz2VtqMXoza5FHxt7eADgLaFl2&#xA;SVgO9OK/Z33VV8oeU/yv/MHzbE0/l3QrrULZSVNyiBIOQ6r6shSMkeHLFUP5t/L/AM6eUJo4vMuj&#xA;3OmGaohkmX925HUJKpZGI7gNirHsVdir6W/5x41E3PkR7VjvY3ksSjwR1WUf8M7Zx3buOs9/zoj9&#xA;TutBK8ddxex+WJ/Q8wWL9KyhP+Rnwf8AG2YfZs+HUQPnXz2btTG8Z9yCvZDLeTyHq8jt97E5i5pc&#xA;Uye8ltgKiA8K/wCcmboiDy/aA7O1zK4/1REq/wDEjnQez0d5n3fpdd2ifpDwjOndW7FXYq7FWY/W&#xA;pNL/ACrjht6xy+ZNVmW9kFKta6XFA0MdRvxaa8dmXxRT4Yqw7FX3v/zinY3Vr+SmjtcMSLqa7ngQ&#xA;/sxtcOoA36EoW+nFXyF+eWh2Wh/m35o06xQR2qXrSxRKAFQXCrPwUDoqmSgHhirGfLHlnWvM+u2e&#xA;h6LbNdalfSCOGJeniWY9FRRuzHoMVfbnl/Q/I3/OPP5ZTahqUiz6lKFN9cJT1r28K/BbwBqHgu/E&#xA;dhVm74q+atG0nz1/zkD+aEt1duY4Kqb65AJt7CyDHhFGDXc/EEXqzVY/tHFX3H5V8raL5V8v2Wg6&#xA;Lbi206xj9OFOrE9Wdz+07sSzHucVfGH/ADl35Y1fTvzYudauI2Om65BbyWM9DwrbwJBJFXpyVo+R&#xA;HgwxV4xp+n3uo39vYWED3N7dyLDbW8Y5O8jniqqPEk4q/TTyZo9zovk/QtGun9W50zT7SznkG4aS&#xA;CBI2avuVxVOMVdirsVdirsVSjzZ5p0byr5dvtf1mb0dPsIzJKw3Zj0VEHd3YhVHjir4atIPOP5//&#xA;AJuF5i0Mc5rMwq8Wn6dE2yrWlacqDpydq7VOKvtXQX8i+Tl0jyFYXVtY3C2xbTdLeRRPLGjUeSho&#xA;XZ35MT1Y8j2OKp/qGn2Go2U1jqFvHd2VwpSe2nRZI3U9QysCCMVeXf8AORnmseR/yfvI9G46fcXp&#xA;i0rTRbgRCJZal/SVQOPGCNwvGlNsVfKf5X/mX6Vu3kLzhM155C1s/V5klozafNIf3d5bM32PSko7&#xA;L0pU0r1VYH5m8v3/AJd8w6joWoLxvNMuJLaanQmNivJf8lhuPbFUsxV7v/zjNdEweYLQnZHtpVHf&#xA;4xKrf8QGcx7Qx3gff+h2nZx+oe57rZSGK8gkHVJEb7mBzn8MuGYPcQ7GYuJCjlbJ4B/zkvIx1fRI&#xA;/wBlbeZh41Z1B/4jnU+zw9Ez5h1XaPMPGM6J1rsVdirsVZzpWnLrv5ValDbDlqXlW/OqvEPtPYah&#xA;HFbXDgDciGW2gJ22Dk4qwqCCWeeOCFS80rBI0HVmY0AHzOKv048m+X4vLnlPR9BiA46ZZwWpI/aa&#xA;OMKzf7JqnFXk/wCdn/OMejeerq58w6Jc/ovzRMAZzKWe1umVQq+oN2ibioHJNvFSd8VVvy98h+S/&#xA;yG8gXXmDzHcRNrLxg6pqIFWZjulnaBqEio9uZ+JqADiq+cNa1n8wP+cgvzKgtrWExwLVbO1BJt7C&#xA;z5DnLK21W6F26saKP2VxV9n/AJbflx5f/L/yxBoWjpXj8d5esoEtzOR8UshH3KP2RtirKsVS7XvL&#xA;ug+YNOfTdc0+DUrGQgtb3MayJyHRgGGzDsRviqSeVPyn/LjyldteeXtAtbG8YEfWgrSTKCKELJKX&#xA;dQe4U4qyzFXYqhtS1Kw0zT7jUdQuEtbG0jaa5uJSFRI0FWZifDFXgt9/zml+XUGrG2ttL1K805W4&#xA;tqCLEnIfzpDI6sR/rFT7Yq9q8o+b/L/m7QbfXdAu1vNPuR8LjZkcfajkU7o69wf1YqnOKvib/nJj&#xA;82Lrz55vh8neW3e60XTbgQxpBVvruoE+mWUD7aoTwj8dyKgjFXuHkjy75c/IH8o7rV9bKvq0iLPq&#xA;rxkc57tgRDZwneoQtxB6fafYVxV8Z+cfO2v+bPNd35m1O4b9I3MokjKEqIVQ/uo4u6rGAAv39cVf&#xA;Yn/OJ/5g+a/N/k/Uk8xXh1CXSbmO3tbqQD1jG0fKkjj7ZFPtH4vEnFXnn/Ob3mN31Xy35aRqJBBL&#xA;qM6+Jmf0Yj9Hoyffir5fxVmP5ozy3et6ZqNwa3t9oulTXhPUyCyjj5tvSsiRq/04qw7FXs//ADjR&#xA;Iw1fW4/2Wt4WPjVXYD/iWc77Qj0QPmXZdncy9/zlnauxV4B/zkvGw1fRJP2Wt5lHjVXUn/iWdT7P&#xA;H0THmHVdo8w8YzonWuxV2KuxVkHkTznqHk/zLba3ZxpcCMNFeWU28NzbSrwmglG9VdDTpsd+2KvW&#xA;vKMP/ONi+edO84jzDcaLplm4vZPKl7Z3Fw8dzGQURLmFZUeFZKNQ1YgUPXZV60n/ADlS/mLztp3l&#xA;z8vfLU+vQyyj67cTt9XYw9GeIfF6apUEvLTw47g4q9i87ed/Lvkvy7ca95guRb2UAoqLRpJZCPhi&#xA;hUkc3amw+k0AJxV8T+avNX5g/n9+YNvpum27LaKzDTdNDH6vaW9QHuLhwKcqU5vTwVR0GKvr/wDK&#xA;X8p/L/5b+Wxpenfv7644yapqTiklxKB4b8UWpCJ29ySSqzfFXYq7FXYq7FXYq8W/5y7Opj8m7r6m&#xA;GMBvbUajx6C35GnL29b0/pxV8KYq+sf+cHW1b6l5sVuX6IElmYeVeP1krL6nDtXgE5/7HFWb/wDO&#xA;UP5vf4L8p/oLSpuPmPXo2jjZT8dvaH4ZZ9ujN9hPepH2cVeef84hflAsjN+YutQfu4y8Pl+KQbFh&#xA;8Mt1v/LvGnvyPYHFXn3/ADkt+cDee/Np0zTJuXljRHeKzKGqXE/2ZLnbqD9mP/J3/aOKvG8Ve1/8&#xA;4wfm/pfkLzLe6frrmHQ9dWJJbulRb3EJb0pHA39MiRlYj2PQYqzX/nK78tvM/mLzBpvnbyxavr2j&#xA;XNjHbyPpym5aMxO7rJSLmWjdZNmXbY17VVeQ6L+THmgQjWPOEEnlPytbnle6jqSGCZlG/p2ttJxm&#xA;mlcCiALSvU0xVjPnXzFH5i8zXuqwQfVLOQxw2FpWvo2ltGtvbRE9ykMSKT3OKpHir2f/AJxojY6v&#xA;rcn7K28KnxqzsR/xHOd9oT6IDzLsuzuZe/5yztVa9jMV5PGeqSOv3MRlmaPDMjuJYwNxBeFf85M2&#xA;pMHl+7A2RrmJz/rCJl/4ic6D2elvMe79Lru0R9JeEZ07q3Yq7FXYq7FWW/lv+WXmr8wdeXStCtyy&#xA;IVN9fyAi3to2P25X+g8VHxN274q+w7Ox/K7/AJx28im4ncTancrSSaifX9QnUCqRrX4YkJ6V4oOp&#xA;LGpVfNV5ffmd/wA5B+f0hiSkEf8AdQAuLHTrcnd3ah+JqbtTk52HYBV9i/lZ+VPln8uvL6aZpMYl&#xA;vJQralqjqBNcyDux34otTwStF9ySSq+b/wDnJ389vNbecbzyd5d1CbStK0rjFfTWrmKa4uCoZwZV&#xA;o4jTlw4gipqTXairzr8sfz689+Stdtp5NTutS0QyAX+lXUrzRtEx+MxcyfTkA3DLTfrUbYq/QW3u&#xA;Ibm3iuIHEkEyLJFIOjIwqpHzBxVUxV2KuxV2KobU9M0/VNPuNO1G3ju7G7jaK5tpVDI6MKFWBxV4&#xA;Hf8A/OFf5fT6o1xa6vqVpp7tyNiDFIVBNSiSunIDsOQY+JOKvWbDTPJP5W+RJxaRLp3l/R4Xubhq&#xA;8pHalWdmY1eWQ0A8TRRtQYq+L9FsPMX58/nM8t2Xit7yX1711+JbPToSAI1NKVC0Rdt3NT1OKvrb&#xA;83PLXm3/AJVNc+W/y6t4YZxBHZJbB/SdbFV4yR25I4+oygJ8TDYnflTFXwA2ga6urtozadcjV0cx&#xA;Np3ov9YEg/Z9KnOvtTFU+1H8pfzO03TjqN/5W1O3slHKSZ7WUBB4yDjVB/rAYqxLFU60bzt5z0SD&#xA;6vouvajpkG59Kzu57dKk1Pwxuo3xVBaprWsavcfWdVv7jULmlPWupXmenhykLHFUFirsVe7/APOM&#xA;1rS38wXZH23tolPhwErNv/sxnMe0Mt4D3/odp2cPqL3WyjMt5BGOryIv3sBnP4Y8UwO8h2MzUSUb&#xA;5ng9DzBfJ0rKX/5GfH/xtmV2lDh1Ex53892rTSvGPc8c/wCch9ONz5ES6Ub2N5FKx8EdWiP/AAzr&#xA;mZ2FkrPX86J/W06+N477i+ac7F0rsVdirsVZz+TP5c235heerXy5dakumQPG9xI9OUsqw0LxQChX&#xA;1CtW+LYAE70oVX1t5789+QfyC8m2mjaHpqtqF0rnTdNSoMrqAr3N3N9oitKn7TdBQCqqvm/yt5N/&#xA;M38/POc2ralcuLJXC32ryLS2tY+ogto6gFgOiL/rOd6lV9peQfy+8seRdAi0Ty/bejAtGnnejTzy&#xA;UoZZnAHJj9w6AAbYqyPFXxt/zk9+R3mqDzje+ctCsZtT0fViJrxLZGlltpwoWQuigt6b05BhsNwa&#xA;bVVecflp+R3nnzvr1taJptzYaR6i/pDVbiJ4ooogfj4FwA8lPsovfrQb4q/Qy1tobW2itoF4QQIs&#xA;cSDoEQcVH0AYqqYq7FXYq7FXYq7FXyR/zmL+ahur+D8vtLm/0ezKXWuMh2ecjlDAado1PNh0qV7r&#xA;ir0n8jvJmj/lD+VFx5m80MLK/vYkv9ZmdTzgi6W9tQDkWHPdaV5sR4Yq9d8v+YtD8xaVDq2h30Wo&#xA;adcCsVxA3JfdT3Vh3Vtx3xVErp2npfPqC20S38sYhkuwiiZo1NVRpKcioJqBXFXj35lf85U+QvJ2&#xA;oPpVhHJ5h1OFuN0lo6pbxEbMrTkMC48EU+5BxV8+/m9b+RPO3lYfmb5JsDpM1vdrY+adHIVQks6l&#xA;oLpQnw8ZCChYU5HsDyqq8WxV2KuxV2Kvpb/nHjTjbeRHumG99eSyqfFEVYh/wyNnHdu5Lz1/NiP1&#xA;u60Eax33l7H5Yg9fzBYp1pKH/wCRfx/8a5h9mw4tRAed/Ldu1Mqxn3Jr+YVoYtZjnA+G4iBJ/wAp&#xA;CVP4UzO7excOYS/nD7vwGjs+VwruLzfz/ox1nyXrOnKvKSW1doV8ZYh6kY/4NBmu0OXw80Zebk54&#xA;cUCHxznoDzrsVdirsVTnyb5mvPK/mrSvMNmT6+mXMdwFBpzVW+OM+zpVT7HFX1X/AM5heXbPXfy8&#xA;0Tzrp9JRYSoPXX9qzv1BVq96SLHT/WOKst/5xO8yQ6x+T9laqqJPotxPYThAF5UImRyBTrHMoJ7k&#xA;HFXseKuxV2KuxV2KuxV2KuJABJNANyT0piqRWHn3yNqOoDTdP8xaZeaiSQLK3vbeWeq9R6aOX2+W&#xA;Kp7irFfzQ8+2PkTyRqXmO64vJbJwsrcmnrXMnwwx+P2t2p0UE9sVfIn/ADjh5BvfzG/M6fzNr/K7&#xA;sNLm/SWpzSiouL2Vy8UbdjVwZGHSi074qyf/AJzD/NL9IavB5C0yatnppW41lkOz3RFY4SR1ESNy&#xA;P+UfFcVRn/OEMsUUvnOee59KK3isWKO3GMKTcF5DU8RxCCpxVKPz4/5yivvMBufLXkmaSz0I1ivN&#xA;VWqT3a9GWP8AajhP/BMOtBUFV86Yq9F8hXBtvyv/ADIe42sLm2021jU9HvDfLJCF3oWWOOV/kMVe&#xA;dYq7FXYq7FX2N5A0Y6N5L0bTmXjJFao0y+Eso9SQf8G5zz/XZfEzSl5vRYIcMAHpH5e2hl1mScj4&#xA;beIkH/KchR+Fc2PYOLizGX80ff8AguN2hKoV3lPfzCsfW0mK6UVa1k3Pgknwn/huObPt7DxYhL+a&#xA;fsP4Di9nzqdd7zrOQdw+O/zB8vnQPOWq6YF4Qxzs9sKUHoy/vI6fJWAz0DQ5/Fwxl1rf3vPZ8fBM&#xA;hjuZbS7FXYq7FX2pojf4s/5w5lSf97JbaJcoFO5B0mRzCNq70tUp9GKsR/5we1Zxcea9IYkoyWl3&#xA;GOwKmSN/v5L92Kvq7FXYq7FXYq7FXYq7FXzV/wA5n+etZ0zSdH8q6fM9vbawJp9TdCVMsUJVUh5D&#xA;qpZyXHsO2KvkKOSSKRZI2KSIQyOpIZWBqCCOhGKv0F/5xy866p5v/KrTb/VnabUbR5LG4uXrym9A&#xA;gJIxP2mMbLybu1Tir55/5y0/MaTzP54t/JulM01joLmKVI/i9bUZaK4AHX0h+7HflyxV7ZpcGmfk&#xA;J+QzT3Co2rpF606dfrGrXSgLHUdVQgLUfsJXFXw1qOoXuo39zqF9M1xe3krz3M7/AGnlkYs7H3LG&#xA;uKsp/LDz8nlDWbs31s1/5e1q0l0zX9PjcxvLaXAo3puCOMi9VPzFRWuKp/rH5dflhqBN75O8/wBl&#xA;DaP8X6N8wR3FpdQ1/wB1mWKGWOU/5SgDFUhk8meU9NIl1jzjYXEY3NposVze3LU7BpYrW2WviZdv&#xA;A9MVQPmjzdHqVla6JpFodL8s6ezSWtgZPVllnccXurqXinqzMBTZQqr8KgCtVWN4q7FXYqyL8vvL&#xA;51/zlpWmFecMk6vcilR6MX7ySvzVSMxNdn8LDKXWtve3YMfHMB9iZ5+9C9F/L2x9HSZbphRrqTY+&#xA;KR/CP+G5Z1/YOHhxGX84/YPwXT9oTuddzIdQs0vbGe0f7MyMlfAkbH6Dvm3z4hkgYHqHDxz4ZA9z&#xA;xuaKSGZ4ZBxkjYo6+DKaEZ53OJiSDzD0YNiw8N/5yP8AK5aPT/MsCfY/0K9IHYkvCx+nkpPyzo+w&#xA;NT9WM+8fpdb2hi5SeE50zq3Yq7FXYq+1fySB/wChU733sdap98+KvNf+cJSf8fa6O36K6f8ARzFi&#xA;r6z82eZLHyz5Z1PzBf1NrplvJcyIv2n4LUIvu7UUe5xV+dfnz8zfOPnjWZtT1zUJZFdy1vYo7LbW&#xA;61qqQxV4qF236nqSTiqf/lx/zkB+Yvke7i+r6hJqmkLQS6RfSPLCU8ImYloT4FNvEHFX2T+Vn54e&#xA;SfzFtQumz/U9ZReVzo1yQJ1oN2j7Sp/lL9IGKvQsVdirsVeY/nz+TEH5m+XLeGCdLPXdMZ5NMupA&#xA;TGfUAEkMvEFgj8V+ICoIHXcFV8xaZ/ziN+cd1qws7uztbCzDUbUpLqKSIr3ZUiZ5j7AoPoxV9Ma5&#xA;Non5G/kjLFpz85NNgMNg8oHK41C5JIdl71kYuV7IKdsVfPH/ADij+X83m38w5/NerK1xY6CwujLI&#xA;a+rqMrFouRP2inxSn/KC+OKo3/nMjzzfal5ytPKSRyw6bosYnfmrIs9zcLX1F5AclSOiqw7lsVeQ&#xA;6J+V35ja5Yrf6R5a1G9snHKO5itpDG4/yHIAf/Y4qkGpaXqel3sthqdpNY3sB4zWtzG0UqHwZHAY&#xA;YqhcVdirsVdirsVdir3b/nHDyuVj1DzLOn2/9CsiR2BDzMPp4qD885nt/U/TjHvP6Hadn4ucnuUM&#xA;Uk0yQxjlJIwRF8WY0AznIRMiAOZdkTQsvZNPs0srGC0T7MKKlfEgbn6TvnomDEMcBAdA85knxSJ7&#xA;0RlrB5x5+0o2uqC8QfubwVPtIuzfeKHOP7c03Bl4xyn97udBl4ocPUMF8y6Faa/oN7o90P3N5E0f&#xA;KleLdUce6MAwzVafMcUxMdHLyQE4kHq+N9W0u80rU7rTbxOF1aStDKvbkhpUex6jPQcWQTiJDkXn&#xA;ZxMTRQmWMXYq7FX20kZ8o/8AOHbRzD02m0FwVOxDaw5oDWu9bzpirCv+cHdLkN35s1VgRGkdpaxt&#xA;2LO0sjj/AGPBfvxV6v8A85TXTQfkd5gVahp2s4gQaUBvIWNfmqkYq+A8VdiqtaXd1Z3MV1aTSW91&#xA;AweGeJikiOpqGVlIKkeIxV9P/kx/zlvcie10D8w2V4XKxQeYlAVkPRfrajYr4yL0/aB3bFX1crKy&#xA;hlIZWFVYbgg4q3irsVdir40/5zE/MB9Z842fkywcyWmhqJLtE3531woIXbr6cRUCndmGKvpH8k/y&#xA;/TyJ+XWl6I6Kuouv1vVWH7V3OAzgnv6Y4xg+C4qyPX/KHlbzC1q2u6Ta6m1jJ61obqJJfTfxXkDs&#xA;e46HFXgH/OZH5h6po9jonlPSLuSze+53uoPA5jcwxMEgjqtDxZ+TH3UYq8ih803H5reTrnQPMAW5&#xA;88+X7Z73y7rBAE95a2687qxnPWRxEGljPUlfGvJV49irsVdirsVdiqL0nS7zVdTtdNs053V3KsMS&#xA;9uTmlT7Dqcry5BCJkeQZQiZGg+yPLehWegaFZaPaD9xZxCMNShZurufd2JY559qMxyzMzzL0WOAh&#xA;EAdGdeQdKN1qhvHH7mzFR7yNsv3Cpza9h6bjy8Z5Q+9xNfl4YcPUvR87B0zsVSzzFpC6rpUttT98&#xA;PjgPhIvT7+mYWv0oz4jHrzHvb9Pl8OYLyV0ZHZHBVlJDKeoI6jOCIINF6AF4d/zkJ5EZ1j822MdS&#xA;gWHVVUfs9Ipj8vsN/sffOk7C1v8Akpf5v6R+l1mvwfxj4vCc6Z1bsVZB5A8oXvnDzlpPlu0Dc9Ru&#xA;FjlddzHCPiml/wCecas30Yq+p/8AnMfzHZ6P+X2j+UbOkbajcIwhU7LaWK7LT/jI0dK+BxVkX/OI&#xA;vlltI/KSK/lTjNrl3Ne79fSWlvGPl+5LD54q1/zl/c+j+Tk0dWH1jULWKg6GhaSje37v78VfC+Ku&#xA;xV2KuxV+hX/OOGoarf8A5LeWZ9TLNOkMsETufiaCCeSKD7okUD2FcVelYq7FUk87+arHyl5S1XzH&#xA;e72+mW7z+nWhkcbRxg+MkhVB88VfGX/OOXlS+/MH8428w6wDcwaZM+s6nM3R7p5C0Cn/AFpjzp3C&#xA;kYqzf/nKP87PMWk+f9N0PypqcthL5fUXF9LA2z3U4DLFIpqkiJFT4WFKsajbFX0P+VfmjUPNX5ea&#xA;F5g1H0vr2o2wluPQBWPmGKnipZ6fZ3364q+K/wDnJ7zGdb/OXWgrcoNL9LToK9hAgMg/5HO+KsK/&#xA;LzVLrSvPnl/ULVuM0GoWxHgymVVdD/kupKn2OKpd5gtIbPXtStIRSG3up4ogevFJGVfwGKpfirsV&#xA;dirsVe7f849+RGRZPNt9HQuGh0pWH7PSWYfP7C/7L2zme3db/ko/536B+l2mgwfxn4PcURndUQFm&#xA;YgKo6knoM5sAk0HZkvWvLukLpelRW1P3x+Oc+MjDf7umd7oNKMGIR68z73n9Rl8SZKZ5mtDsVdir&#xA;z/z7oRguRqkC/uZzS4A/Zk/m/wBl+v55ynbmi4ZeLHlLn7/2u30OexwHmGF3dpbXlrNaXUYmtrhG&#xA;jmibdWRxRlPzGaGMjEgjmHPIBFF8mfmV5DuvJ/mB7SjPptxWXTrg/tR1+wx/nTo30Hvnddn60ajH&#xA;f8Q5uh1GA45V06MSzPcd6B+R/wCZsP5deeodcurMXljNE1peqADMkMrKzSQk/tqUG37QqNq1xVO/&#xA;N+q6t+eX53pbaWXFneTLZaXzBpBp8BLNMynp8POZh4mnhir7u0jSrHSNKs9KsI/RsbCCO2tYh+zF&#xA;EoRB9wxV4b/zmnI6/lVpqqaCTW7dXHiPqt01PvUYq+KMVdiq6OOSWRY41LyOQqIoJZmJoAAOpOKv&#xA;efyl/wCcUfNvmO5t9S83RSaFoAKu1tION9cLWvFYzvCD0LSbjsp64q+0dN06x0zT7bTrCFbaxs4k&#xA;gtbdBRUijUKij2AGKojFXYq+X/8AnNTz56NhpPki1kpJdH9JamAd/SjJS3Q+zPzb/YjFWU/kHo1h&#xA;+WP5FXPm3WE4T38L61eDo5hCf6JCp/y0oV/ynxV8Y6/rd/rut3+s6g/qX2ozyXNw+9OcrFiBXoBW&#xA;gHYYq+sv+cSvzg0KbyzB5A1W5W11exkkOk+swVbmGVzL6aMf92I7t8PdaU6GirxH88Pyu876P+Ze&#xA;uyyaZdXtpqt9cX9jfQQySxypcymWnJFpzTnxdfH2IxVT8reSNU8ktB56852h0u307/SdC0m8Hp3e&#xA;oX8e9uq27UkWCOTjJK7qBxFBUnFXmcssksryyMWkkYs7HqWJqScVWYq7FXYqy38tPIl15w8wpa0Z&#xA;NNtuMuo3A24x1+wp/nfov0ntmB2hrRp8d/xHk5GnwHJKunV9Z2lpbWdrDaWsYhtrdFjhiXZVRBRV&#xA;HyGcLKRkSTzLvgABQZp5C0Iz3J1Sdf3MBpbg/tSfzf7H9fyzfdh6Lil4suUeXv8A2OBrs9DgHMvQ&#xA;M6t1DsVdirsVUru1gu7aS2nUPDKpV1Pgcry4oziYy5FlCRibHN5NrujT6TfvbSVKfahk7MnY/Pxz&#xA;g9bpJYMhieXQ94d/gzDJGwxHzp5P0zzZoU2lXw4lvjtrgCrQzAfC6/qI7jbBpNVLBMSj8fMJzYhk&#xA;jRfJnmby1q3lvWJ9K1OIxzxGqOPsSIT8MiHurf2HfO60+ohmgJR5OhyYzA0Uqy9regfkn+ah/Lbz&#xA;gNZfT49QtLiI2t6lAJ0hZlZmt3NAr1UbHZum3UKvvryh5y8t+b9Eh1ry/epe2M2xZdnjcdY5UPxI&#xA;47q36sVSP85fy8Hn/wDL/UPL0brFfNwuNOmkrwS5hPJOVK0VxVCabBq4q+BtX/Lbz/o+pSabqHl7&#xA;UIruNuPAW8jq29KxugZXU9mUkHFXo35c/wDOKf5i+aJEudaiPlnSDQtLeIfrTjwjtqq4P/GTj9OK&#xA;vqr8t/yO/L3yAiy6RY/WNV40k1e8pLcnx4GgWIHwjUe9cVZ1dXVraW73N1MlvbxDlJNKwRFHizMQ&#xA;BirzHzJ/zk3+TWhM0Z1wancL1i02NrkH5SikB/5GYqwHUP8AnN3yfGx/R3lzULlf2TcSQW5PzCG4&#xA;xVLf+h5LP16f4Ok9Cmz/AKQXnX/U+r0/4bFXkNvLqP53fnrDJPC0MGs3amWAMW+r6fbKCy8wBuII&#xA;+u1XPvir2z/nMvzrFpnlbSfI9gwifUmF1eQpQBbS1NIUK/yvKKr/AMY8VfIGKtglSCDQjcEdQcVZ&#xA;la/nL+a9raC0g826qsCgKqm6lYqF6BWYlgN+xxVi+p6tqmq3b3uqXk9/eSfbubmR5pWp4u5Zj9+K&#xA;oTFXYq7FU18s+WtW8yaxBpWmRGSeU1dz9iNAfikc9lX+wb5RqNRDDAylybMeMzNB9Z+S/J+meU9C&#xA;h0qxHIr8dzcEUaaYj4nb9QHYbZwur1Us8zKXw8g77DiGONBl2haNPq1+ltHVYx8U0n8idz8/DDot&#xA;JLPkERy6nuCM+YY42XrNrawWttHbQLwhiUKijwGd7ixxhERjyDoJSMjZVcmxdirsVdirsVS3XtEt&#xA;9XsTBJ8Mq1aCXurf0PcZh67Rx1EOE8+h7m7BmOOVh5VfWNzY3UltcoUljNCOx8CPEHOFzYZYpGMh&#xA;RDv4TEhYYb+YP5faV5y0r6vcUh1CEE2N8BVo2P7LfzI3cfxzJ0Oulp5WN4nmGrPgGQeb5Z8y+WdY&#xA;8t6tLpmqwGKeM1RxUpInZ42/aU/2HfO20+ohmhxROzo8mMwNFKsva2TeQvzG82+RNYGq+Xb028jU&#xA;FzbPV7edAa8Jo6gMPA9R2IxV9mflP/zk15J87rDp+pOug+Y2ov1O4cehM/T/AEeY0U1PRGo3hy64&#xA;q9ixVp3REZ3YKiglmJoAB1JOKvAvzU/5y38qeXDNpnlFE8wawtVa75EWELf66/FOR4JRf8uu2KvB&#xA;rfTPz3/PTUxPI1xe6erkC4mP1bS7feh4AAIWXvwVn8a4q9c8r/8AOFXl60gFz5v8wTXLqOcsFgEt&#xA;oVp1DSyiRmX34piqct5H/wCcPvLR9O8uNJmuI9pBNqEt5JUA/aiSVwOv8gxVYut/84YrCYRHo/Bt&#xA;yTZ3Jf6HMXIffirIfI/mX/nF3RdRa/8AK+oaJpl/PH6LXDObZ+BbdQbnhxBI3pSu2Kvkv88PPH+N&#xA;PzN1rWIpPUsEl+qabvVfq1t+7Rl9pCDJ/ssVYHirsVdirsVdirsVTXy15Z1jzJq0WmaVAZZ5DV3N&#xA;Qkad3kb9lR/YN8o1GohhhxSOzZjxmZoPqb8vvy+0rybpX1a2pPfzgG+viKNIw7D+VF7D+OcTrtdL&#xA;USs7RHIO8wYBjFDmzKxsbm+uo7W2QvLIaAdh4k+AGY2HDLLIRiLJbZzERZeq6DolvpFiLeP4pW+K&#xA;eWm7N/Qds7rQ6OOnhwjn1Pe6DPmOSVlMszGl2KuxV2KuxV2KuxVJ/Mfly31m2AJEd1H/AHM1P+Fb&#xA;xB/DNf2h2fHUR7pDkXI0+oOM+TzC+sbqxuXtrmMxyodwe48Qe4OcTmwyxSMZCiHewmJCwxrzh5L0&#xA;LzZphsdVh5Fam3uUoJoWP7SN+sHY98t0urnglxRPw6FhlwxyCi+ZPPn5a+YPJ90frafWNNdqW+ox&#xA;A+m3gr/yP/kn6Cc7LRdoY9QNtpdzpc+nljO/LvYlme47sVes/lx/zkv+ZHkpIrJrka3osVFXT9QL&#xA;O0aD9mGcH1E22APJR/Liqr+bX/ORXnH8xpF0u1H6D8vScUOmxzCszGgJubgiIMte1FQDrvvir1f8&#xA;n/8AnF/yZZaTD5r88alaawip64tbedG0yFVFazXCtxm499wn+sMVRf5jf85b+V/L1udD/Lqyh1CW&#xA;3HpJeshi0+ELUUhjTg0tPbivgWxV8y+cfzK89ecrhpvMes3F8hPJLUtwt03r8ECcY1+YWuKsZxV2&#xA;KuxV2KuxV2KuxV2KuxVlvkT8tPMPnC6H1VPq2mo1LjUZVPprTqqfzv8A5I+kjMDW9oY9ON95dzkY&#xA;NPLIduXe+m/J/kvQvKemCx0qHiWobi5ehmmYftO36gNh2zjdVq555cUj8Ogd1iwxxigyWxsbq+uU&#xA;traMySudgOw8SewGVYcMsshGIslnOYiLL1Dy55cttGtiARJdSU9aan/Cr/kjO27P7Pjp498jzP46&#xA;Oi1GoOQ+Sb5sHHdirsVdirsVdirsVdirsVS3W9BsdXt/TnHGVf7qdR8Sn+I8RmHrNDDURqXPoe5u&#xA;w55YzYeZ6zoV/pM/p3KfAT+7mX7DD2Pj7Zxer0WTBKpDboehd3hzxyCwlN3aWt5bSWt3ClxbTDjL&#xA;DIodGU9mU7HMaMjE2DRbSARReK+e/wDnHtXMl/5RcId2bSpm2PtDK3T/AFX/AOCzo9F27/Dl/wBN&#xA;+sfqdbn0HWHyeKappOp6VePZ6lay2l0n2oplKNTxFeo9xnRY8sZi4mw62UDE0UJljF2KqqXVzHDL&#xA;BHK6QTU9aJWIR+JqvJRsaHcVxVSxV2KuxV2KuxV2KuxV2KuxVF6XpOp6reJZ6bay3d0/2YoVLtTx&#xA;NOg9zleTLGAuRoMowMjQe1+RP+ce1Ro77zbIHIoy6VC3w/KaUdf9VP8Agu2c7re3f4cX+m/UP1uy&#xA;waDrP5ParS0tbO2jtbSFLe2hHGKGNQiKo7Ko2Gc5KRkbJsuyAAFBNtG0K/1af07ZKRqf3szbIo9z&#xA;4+2ZWk0WTPKojbqegas2eOMWXpmiaDY6Rb+nbjlK1PVnb7TH+A9s7PR6GGnjUefU97pM2eWQ2Uyz&#xA;MaXYq7FXYq7FXYq7FXYq7FXYq7FVK6tLa7gaC5jWWFxRkYVGV5cUZx4ZCwyjMxNjmwTXfIVzAWn0&#xA;smeHqbc/3i/6v836/nnMa3sOUfVi9Q7uv7Xa4NcDtPYsSdHRijqVZTRlIoQfcZoCCDRdgCleu+Wt&#xA;B1+0NrrFlFeQ78fUX4lr3RxRkPupy3DqJ4jcDTCeOMxRFvIvNH/OOEbF5/LWocOpFle1I+SzIK/I&#xA;Mv05v9N2/wBMkfiP1Ovy9n/zS8r8wfl95y0AsdT0qeOFK1uUX1YaDv6kfJR9Jzd4Ndhy/TIX3dXB&#xA;yYJw5hjuZbS7FXYq7FXYq7FXYq7FWReX/wAvvOWvlTpmlTyQvSlzIvpQ0Pf1JOKn6DmJn12HF9Uh&#xA;fd1bseCc+QeqeV/+ccI1KT+ZdQ59CbKy2HyaZxX58V+nNJqe3+mOPxP6nOxdn/zi9d0Ly3oWgWYt&#xA;NHsorODbkIx8TEd3c1Zz7sc0GbUTym5my7CGOMBQFJoiO7BEUszGiqBUk+wyoAk0GZLLdC8hXM/G&#xA;fVCYIeotx/eN/rfy/r+Wb/Rdhyl6svpHd1/Y6/PrgNoblndra21rAsFtGsUKbKiigzqMeKMI8MRQ&#xA;dVKRkbKrk2LsVdirsVdirsVdirsVdirsVdirsVdirsVSzV/Lulaqp+sxUm7Tp8Mg+nv9OYWq0GLO&#xA;PUN+8c2/FqJ4+RYXqvkHVLUl7Mi8h8B8Mg/2J2P0HOc1PYeWG8PWPtdli18JfVsWNSwywyGOVGjk&#xA;X7SOCpHzBzTSgYmiKLmgg7hbkUsf1nyB5L1ks2o6NayyN9qZUEUp+ckfB/xzLxa7Nj+mRap4IS5h&#xA;h+o/848eRLklrV7yxPZYpVdB9Equ3/DZn4+3c458Mvh+px5aDGeVhILr/nGaAkm08wOg7LLbB9/9&#xA;ZZU/VmVH2hPWH2/saT2d3S+xL5P+caNXDfu9bt2XxaF1NfkGbLR7Qw6wPzY/yce90f8AzjRq5b95&#xA;rduq+Kwuxr8iy4n2hh0gfmv8nHvTC1/5xmtxQ3fmB38VitglPH4mlf8AVlUvaE9Ifb+xkOzu+Sf6&#xA;d/zjx5EtiGunvL491llVEP0RKjf8NmLk7dznlwx+H626OgxjnZZho/kDyXo5VtO0a1ikX7MzIJJR&#xA;Twkk5v8AjmBl12bJ9Ui5EMEI8gyDMRtXRQzTSCOFGkkb7KICzH5AZKMDI0BZQSBuWS6V5B1S5Kve&#xA;EWkPdT8UhH+qNh9Jzc6XsPLPefoH2uFl18I/TuWa6R5d0rSlH1aKsved6NIfp7fRnR6XQYsH0jfv&#xA;PN1uXUTycymWZrQ7FXYq7FXYq7FXYq7FXYq7FXYq7FXYq7FXYq7FXYq7FUPeafY3qcLuBJl7c1BI&#xA;+R6j6Mqy4IZBUwCzhklHkaY9ffl7pM1WtZZLVj0H94g+hvi/4bNRm7BxS+kmP2j8fFzIdoTHPdIr&#xA;v8vdZiJMEkVwvYAlG+5hT8c1mXsHNH6SJfZ+Pm5Ue0IHnYSqfyx5gg+3Yymn8g9T/iHLMGfZuojz&#xA;gfhv9zfHU4z1CCksryI0kgkQ/wCUjD9YzFlhnHmCPg2icTyKjlbJ2Kq0dleSmkcEjn/JRj+oZZHD&#xA;OXIE/BiZxHMo2Dyx5gn+xYyiv849P/ifHMqHZuolygfjt97VLU4x1Ca2v5eazKQZ5Irde4qXb7lF&#xA;PxzOxdg5j9REft/HzaJdoQHKyntj+Xukw0a6kkumHUf3aH6F+L/hs2eHsHFH6iZfYPx8XFn2hM8t&#xA;mQ2en2NknC0gSFe/BQCfmep+nNviwQxioABw55JS5m0RlrB2KuxV2KuxV2KuxV2KuxV2Kv8A/9k=</xmpGImg:image>
               </rdf:li>
            </rdf:Alt>
         </xmp:Thumbnails>
      </rdf:Description>
      <rdf:Description rdf:about=""
            xmlns:xmpMM="http://ns.adobe.com/xap/1.0/mm/"
            xmlns:stRef="http://ns.adobe.com/xap/1.0/sType/ResourceRef#"
            xmlns:stEvt="http://ns.adobe.com/xap/1.0/sType/ResourceEvent#">
         <xmpMM:InstanceID>xmp.iid:238E3FD22A9EF011B798AA0B73610D88</xmpMM:InstanceID>
         <xmpMM:DocumentID>xmp.did:238E3FD22A9EF011B798AA0B73610D88</xmpMM:DocumentID>
         <xmpMM:OriginalDocumentID>uuid:5D20892493BFDB11914A8590D31508C8</xmpMM:OriginalDocumentID>
         <xmpMM:RenditionClass>proof:pdf</xmpMM:RenditionClass>
         <xmpMM:DerivedFrom rdf:parseType="Resource">
            <stRef:instanceID>xmp.iid:1C8E3FD22A9EF011B798AA0B73610D88</stRef:instanceID>
            <stRef:documentID>xmp.did:1C8E3FD22A9EF011B798AA0B73610D88</stRef:documentID>
            <stRef:originalDocumentID>uuid:5D20892493BFDB11914A8590D31508C8</stRef:originalDocumentID>
            <stRef:renditionClass>proof:pdf</stRef:renditionClass>
         </xmpMM:DerivedFrom>
         <xmpMM:History>
            <rdf:Seq>
               <rdf:li rdf:parseType="Resource">
                  <stEvt:action>saved</stEvt:action>
                  <stEvt:instanceID>xmp.iid:1C8E3FD22A9EF011B798AA0B73610D88</stEvt:instanceID>
                  <stEvt:when>2025-10-01T02:25:20+08:00</stEvt:when>
                  <stEvt:softwareAgent>Adobe Illustrator CS6 (Windows)</stEvt:softwareAgent>
                  <stEvt:changed>/</stEvt:changed>
               </rdf:li>
               <rdf:li rdf:parseType="Resource">
                  <stEvt:action>saved</stEvt:action>
                  <stEvt:instanceID>xmp.iid:238E3FD22A9EF011B798AA0B73610D88</stEvt:instanceID>
                  <stEvt:when>2025-10-01T02:33:32+08:00</stEvt:when>
                  <stEvt:softwareAgent>Adobe Illustrator CS6 (Windows)</stEvt:softwareAgent>
                  <stEvt:changed>/</stEvt:changed>
               </rdf:li>
            </rdf:Seq>
         </xmpMM:History>
      </rdf:Description>
      <rdf:Description rdf:about=""
            xmlns:illustrator="http://ns.adobe.com/illustrator/1.0/">
         <illustrator:StartupProfile>Print</illustrator:StartupProfile>
      </rdf:Description>
      <rdf:Description rdf:about=""
            xmlns:xmpTPg="http://ns.adobe.com/xap/1.0/t/pg/"
            xmlns:stDim="http://ns.adobe.com/xap/1.0/sType/Dimensions#"
            xmlns:xmpG="http://ns.adobe.com/xap/1.0/g/">
         <xmpTPg:HasVisibleOverprint>False</xmpTPg:HasVisibleOverprint>
         <xmpTPg:HasVisibleTransparency>False</xmpTPg:HasVisibleTransparency>
         <xmpTPg:NPages>1</xmpTPg:NPages>
         <xmpTPg:MaxPageSize rdf:parseType="Resource">
            <stDim:w>45.861111</stDim:w>
            <stDim:h>45.861111</stDim:h>
            <stDim:unit>Millimeters</stDim:unit>
         </xmpTPg:MaxPageSize>
         <xmpTPg:PlateNames>
            <rdf:Seq>
               <rdf:li>Cyan</rdf:li>
               <rdf:li>Magenta</rdf:li>
               <rdf:li>Yellow</rdf:li>
               <rdf:li>Black</rdf:li>
            </rdf:Seq>
         </xmpTPg:PlateNames>
         <xmpTPg:SwatchGroups>
            <rdf:Seq>
               <rdf:li rdf:parseType="Resource">
                  <xmpG:groupName>Default Swatch Group</xmpG:groupName>
                  <xmpG:groupType>0</xmpG:groupType>
               </rdf:li>
            </rdf:Seq>
         </xmpTPg:SwatchGroups>
      </rdf:Description>
      <rdf:Description rdf:about=""
            xmlns:pdf="http://ns.adobe.com/pdf/1.3/">
         <pdf:Producer>Adobe PDF library 10.01</pdf:Producer>
      </rdf:Description>
   </rdf:RDF>
</x:xmpmeta>
                                                                                                    
                                                                                                    
                                                                                                    
                                                                                                    
                                                                                                    
                                                                                                    
                                                                                                    
                                                                                                    
                                                                                                    
                                                                                                    
                                                                                                    
                                                                                                    
                                                                                                    
                                                                                                    
                                                                                                    
                                                                                                    
                                                                                                    
                                                                                                    
                                                                                                    
                                                                                                    
                           
<?xpacket end="w"?>
	</metadata>
<g id="icon">
	<path fill="#DCAA38" d="M130,65c0,35.9-29.11,65-65.01,65C29.1,130,0,100.9,0,65C0,29.1,29.1,0,64.99,0C100.89,0,130,29.1,130,65z"
		/>
	<path d="M64.99,5.91C32.37,5.91,5.91,32.36,5.91,65c0,32.64,26.46,59.09,59.08,59.09c32.64,0,59.1-26.45,59.1-59.09
		C124.09,32.36,97.63,5.91,64.99,5.91z"/>
	<g>
		<path fill="#FFFFFF" d="M111.79,44.07l-0.65-0.41c0.32,0.7,0.63,1.4,0.92,2.11L111.79,44.07z"/>
		<path fill="#FFFFFF" d="M73.17,109.19c0,0,2.69-7.39,6.5-15.7c1.32,0.86,2.49,1.62,2.5,1.59c0.04-0.06-0.31,1.48,0.23,3.44
			c0.54,1.95,2.33,2.74,3.13,3.27c0.81,0.53,4.63,0.91,6.64-1.23c2.01-2.15,1.66-5.66,0.87-7.53c-0.8-1.87-1.35-2.9-2.55-3.68
			c-1.27-0.83-3.09-0.81-4.61,0.02c-1.52,0.82-1.57,0.99-1.57,0.99l-2.39-1.55c0.02-0.03,0.04-0.07,0.05-0.11
			c2.13-4.29,4.48-8.64,7.01-12.91l2.79,1.81c0,0-0.13,0.12-0.26,1.84c-0.14,1.72,0.58,3.39,1.86,4.22c1.2,0.78,2.37,0.87,4.4,0.83
			c2.03-0.04,5.38-1.14,6.53-3.85c1.14-2.71-0.76-6.04-1.57-6.57c-0.81-0.53-2.26-1.84-4.26-1.54c-2,0.3-3.27,1.24-3.23,1.19
			c0.02-0.03-1.87-1.25-3.57-2.34c2.51-3.99,5.16-7.85,7.91-11.47c1.75,1.15,3.82,2.5,3.84,2.47c0.04-0.06-0.31,1.48,0.23,3.44
			c0.54,1.95,2.33,2.75,3.14,3.27s4.63,0.91,6.63-1.24c2.01-2.15,1.66-5.66,0.87-7.53c-0.8-1.87-1.35-2.9-2.55-3.68
			c-1.27-0.83-3.1-0.8-4.61,0.02c-1.52,0.82-1.57,0.99-1.57,0.99l-2.73-1.77c5.4-6.29,9.42-8.95,9.42-8.95l-0.18-1.15
			c-0.29-0.71-0.6-1.42-0.92-2.11l-2.98-1.87c-7.32-4.75-7.23-13.15-16.36-19.08c-9.14-5.93-20.99-4.33-20.99-4.33
			s-2.73,7.31-6.51,14.3c-1.66-1.09-3.48-2.28-3.5-2.24c-0.04,0.06,0.3-1.49-0.23-3.44c-0.54-1.95-2.33-2.74-3.13-3.27
			c-0.81-0.52-4.63-0.91-6.63,1.24c-2.01,2.14-1.67,5.66-0.87,7.53c0.8,1.87,1.35,2.9,2.55,3.68c1.27,0.82,3.09,0.8,4.61-0.02
			c1.52-0.82,1.57-0.99,1.57-0.99l3.02,1.96c-0.07,0.11-0.14,0.21-0.2,0.32c-2.72,4.19-5.22,7.94-8.18,11.83l-2.92-1.9
			c0,0,0.13-0.12,0.26-1.84c0.13-1.72-0.59-3.4-1.86-4.22c-1.2-0.78-2.37-0.86-4.4-0.83c-2.03,0.03-5.38,1.15-6.53,3.85
			c-1.14,2.71,0.76,6.04,1.57,6.56c0.81,0.53,2.26,1.83,4.26,1.54c2.01-0.3,3.27-1.24,3.24-1.18c-0.02,0.03,1.59,1.07,3.18,2.09
			c-1.85,2.25-3.91,4.61-6.28,7.18c-1.05,1.13-2.11,2.23-3.17,3.29c-1.61-1.05-3.28-2.14-3.3-2.11c-0.04,0.06,0.31-1.49-0.23-3.44
			c-0.54-1.95-2.32-2.74-3.13-3.27c-0.81-0.52-4.63-0.91-6.63,1.23c-2.01,2.15-1.66,5.66-0.87,7.53c0.8,1.87,1.35,2.9,2.55,3.68
			c1.27,0.82,3.09,0.8,4.61-0.02s1.57-0.99,1.57-0.99l1.61,1.04c-5.49,5.07-9.93,8.39-9.93,8.39c3.97,7.93,2.84,14.02,1.74,18.35
			c-0.32,1.26-1.02,2.77-1.84,4.28c0.57,0.65,1.15,1.28,1.75,1.9c1.06-1.86,1.99-3.81,2.41-5.45c1.18-4.63,2.02-10.31-0.76-17.34
			c-0.22-0.56-0.07-1.16,0.37-1.51c3.13-2.5,9.24-7.63,15.1-13.96c8.44-9.12,12.92-15.7,17.88-23.35
			c3.88-5.97,7.14-13.52,8.74-17.49c0.19-0.47,0.65-0.78,1.19-0.8c3.84-0.13,11.17,0.22,17.11,4.07c4.29,2.79,6.36,6.29,8.36,9.68
			c2.06,3.5,4.02,6.81,8,9.39l0.04,0.03l1.25,0.78c0.4,0.25,0.67,0.66,0.73,1.11c0.06,0.44-0.11,0.87-0.44,1.15
			c-2.45,2.04-6.26,5.64-10.54,11.23c-6.52,8.52-12.81,18.76-18.19,29.6c-3.55,7.16-6.49,14.46-7.92,18.17
			c-0.21,0.54-0.77,0.87-1.39,0.81c-3.36-0.3-9.79-0.38-15.09,2.38c-2.93,1.53-5.15,2.84-6.93,4.15c0.97,0.33,1.95,0.64,2.94,0.91
			c1.42-0.93,3.14-1.91,5.26-3.02C63.75,107.27,73.17,109.19,73.17,109.19z M87.09,92.24c0.69-2.71,1.66-3.03,2.24-2.62
			c1.68,1.21,2.39,1.63,3.47,4.27c1.08,2.63,0.19,4.66-0.42,5.64c-0.71,1.14-2.5,1.83-3.93,1.88c-1.43,0.05-2.06-0.56-2.62-1.71
			C85.25,98.57,86.4,94.96,87.09,92.24z M94.64,79.38c2.19-1.74,5.02-4.25,6.3-4.2c1.28,0.05,2.1,0.37,2.63,1.71
			c0.53,1.33,0.63,3.25-0.12,4.36c-0.65,0.96-2.14,2.59-4.98,2.68c-2.85,0.08-3.52-0.4-5.31-1.43
			C92.54,82.13,92.44,81.11,94.64,79.38z M108.33,59.54c0.69-2.71,1.66-3.03,2.23-2.62c1.68,1.21,2.39,1.63,3.47,4.27
			c1.08,2.63,0.19,4.66-0.42,5.64c-0.71,1.14-2.5,1.82-3.93,1.88s-2.06-0.56-2.63-1.7C106.49,65.86,107.64,62.25,108.33,59.54z
			 M55.87,33.28c-0.69,2.71-1.66,3.03-2.23,2.62c-1.68-1.21-2.39-1.63-3.47-4.27c-1.08-2.63-0.19-4.66,0.42-5.64
			c0.71-1.14,2.5-1.83,3.93-1.88c1.43-0.05,2.06,0.56,2.63,1.71C57.71,26.96,56.56,30.56,55.87,33.28z M47.51,45.61
			c-2.19,1.74-5.02,4.26-6.3,4.21c-1.28-0.05-2.1-0.38-2.63-1.71c-0.53-1.33-0.63-3.24,0.12-4.35c0.65-0.96,2.14-2.6,4.98-2.68
			c2.85-0.08,3.52,0.4,5.31,1.43C49.6,42.86,49.7,43.88,47.51,45.61z M32.42,64.55c-0.69,2.71-1.66,3.03-2.23,2.62
			c-1.68-1.21-2.39-1.63-3.47-4.27c-1.08-2.63-0.19-4.66,0.42-5.65c0.71-1.14,2.5-1.82,3.93-1.88c1.43-0.06,2.06,0.56,2.63,1.71
			C34.26,58.23,33.11,61.84,32.42,64.55z"/>
		<path fill="#FFFFFF" d="M69.46,103.66c1.55-3.95,4.34-10.78,7.67-17.49c5.45-10.99,11.83-21.36,18.44-30.01
			c3.68-4.82,7.05-8.21,9.54-10.44c-4.4-2.98-6.68-6.83-8.69-10.24c-1.98-3.35-3.68-6.24-7.33-8.61c-4.78-3.11-10.76-3.6-14.39-3.57
			c-1.73,4.2-4.89,11.35-8.64,17.13c-5.03,7.75-9.57,14.42-18.15,23.68C42.37,70.1,36.6,75.04,33.26,77.75
			c2.65,7.33,1.77,13.25,0.54,18.09c-0.53,2.07-1.74,4.49-3.04,6.71c4.22,3.85,9.1,7.01,14.44,9.27c2.11-1.74,4.81-3.42,8.62-5.41
			C59.24,103.59,65.59,103.42,69.46,103.66z M87.8,49.16c1.17-1.81,3.59-2.32,5.39-1.14c1.81,1.17,2.32,3.59,1.15,5.39
			c-1.17,1.81-3.59,2.32-5.39,1.15C87.14,53.38,86.63,50.96,87.8,49.16z M81.68,63.78c1.81,1.17,2.32,3.59,1.15,5.4
			c-1.17,1.81-3.59,2.32-5.39,1.14c-1.81-1.17-2.32-3.59-1.15-5.39C77.46,63.12,79.87,62.6,81.68,63.78z M69.28,39.69
			c1.17-1.8,3.59-2.32,5.39-1.14c1.81,1.17,2.32,3.59,1.15,5.39c-1.17,1.81-3.59,2.32-5.39,1.15C68.62,43.91,68.11,41.5,69.28,39.69
			z M67.38,82.4c1.17-1.81,3.59-2.32,5.39-1.15c1.81,1.17,2.32,3.58,1.15,5.4c-1.17,1.8-3.59,2.31-5.39,1.14
			C66.72,86.62,66.21,84.2,67.38,82.4z M58.42,55.88c1.17-1.81,3.58-2.32,5.39-1.15c1.81,1.18,2.32,3.59,1.15,5.4
			s-3.59,2.32-5.39,1.15C57.76,60.1,57.25,57.69,58.42,55.88z M45.95,71.04c1.17-1.81,3.58-2.32,5.39-1.15
			c1.81,1.18,2.32,3.59,1.15,5.4c-1.17,1.81-3.59,2.32-5.39,1.14C45.29,75.25,44.77,72.84,45.95,71.04z M39.02,99.67l0.52-9.01
			c0.29-4.99,3.96-6.84,8.15-4.12l7.34,4.77c4.19,2.72,3.98,6.82-0.45,9.12l-8.02,4.14C42.12,106.86,38.73,104.66,39.02,99.67z"/>
	</g>
</g>
</svg>
